<svg width="40" height="36" viewBox="0 0 40 36" fill="none" xmlns="http://www.w3.org/2000/svg">
<path d="M17.69 3.30998C18.1 2.52998 17.79 1.55998 17.01 1.14998C16.23 0.73998 15.26 1.04997 14.85 1.82997L8.65997 13.74H2.96997C1.78997 13.74 0.840027 14.69 0.840027 15.87C0.840027 17.05 1.78997 18 2.96997 18L6.41998 31.8C6.88998 33.7 8.59999 35.03 10.55 35.03H29.44C31.4 35.03 33.1 33.7 33.57 31.8L37.02 18C38.2 18 39.15 17.05 39.15 15.87C39.15 14.69 38.2 13.74 37.02 13.74H31.33L25.14 1.82997C24.73 1.04997 23.77 0.74998 22.98 1.14998C22.19 1.54998 21.9 2.51998 22.3 3.30998L27.73 13.75H12.26L17.69 3.30998ZM13.61 21.19V27.58C13.61 28.17 13.13 28.64 12.55 28.64C11.97 28.64 11.49 28.16 11.49 27.58V21.19C11.49 20.6 11.97 20.13 12.55 20.13C13.13 20.13 13.61 20.61 13.61 21.19ZM20 20.13C20.59 20.13 21.06 20.61 21.06 21.19V27.58C21.06 28.17 20.58 28.64 20 28.64C19.42 28.64 18.94 28.16 18.94 27.58V21.19C18.94 20.6 19.42 20.13 20 20.13ZM28.51 21.19V27.58C28.51 28.17 28.03 28.64 27.45 28.64C26.87 28.64 26.39 28.16 26.39 27.58V21.19C26.39 20.6 26.87 20.13 27.45 20.13C28.03 20.13 28.51 20.61 28.51 21.19Z" fill="#493845"/>
</svg>
