<svg width="42" height="50" viewBox="0 0 42 50" fill="none" xmlns="http://www.w3.org/2000/svg">
<path d="M41.9199 14.91C41.9799 16.74 40.7099 18.54 39.6999 18.36C39.1699 18.27 38.4399 17.48 38.3799 16.93C38.1899 15.33 39.1899 13.61 40.0399 13.82C40.8099 14.01 41.4799 14.64 41.9199 14.91Z" fill="#F4F4F4"/>
<path d="M34.7701 19.62C34.1301 18.49 33.2801 17.53 33.2801 17.53C32.6401 16.81 32.0101 16.28 31.5101 15.9C31.5101 15.9 30.4101 15.06 29.1301 14.55C25.0201 12.93 20.0501 14.07 16.2801 17.5C17.5201 15.94 19.32 13.17 19.75 9.39002C19.89 8.17002 20.44 3.38 18.04 1.72C16.45 0.620004 14.5801 0.630008 14.5801 0.630008C14.5801 0.630008 14.25 0.629996 13.91 0.679996C12.77 0.829996 8.70006 2.05999 5.07006 6.26999C1.27006 10.68 0.460055 15.44 0.320055 16.39C0.220055 17.01 0.0700652 18.12 0.0800652 19.92C0.100065 24.08 0.93007 28.31 2.96007 33.81C4.42007 37.76 6.82007 43.22 10.7701 49.34C10.9101 49.35 11.9001 49.42 12.6301 48.67C13.1301 48.16 13.23 47.55 13.25 47.34C10.59 43.65 8.92005 40.2 7.88005 37.59C5.06005 30.59 4.71003 24.67 4.61003 22.49C4.49003 19.59 4.71003 17.18 4.92003 15.55C4.92003 15.55 6.02004 9.71 9.99004 5.37C10.51 4.8 11.48 3.83 13 3.37C13.65 3.17 14.73 2.87 15.54 3.31C17.41 4.32 16.79 8.66001 16.61 9.88001C16.41 11.26 15.97 13.2 13.35 18.57C12.23 20.86 11.23 22.73 10.5 24.04C10.93 24.86 11.36 25.68 11.79 26.5C12.31 25.31 13.18 23.64 14.6 21.91C15.84 20.4 17.7901 18.01 21.2101 16.82C22.7801 16.27 25.5901 15.27 28.4401 16.63C30.8301 17.77 31.9101 19.94 32.2601 20.74C27.3401 24.26 23.58 27.6 20.92 30.18C18.82 32.21 15.67 35.45 14.43 39.83C13.76 42.22 14.0401 43.6 14.5801 44.58C15.2801 45.85 16.4701 46.48 17.1301 46.77C17.9001 46.85 18.37 46.81 18.37 46.81C19.1 46.7 20.1401 46.5 21.3401 46.1C26.8101 44.27 29.8901 40.15 31.0901 38.49C36.8701 30.53 35.8601 21.54 34.7601 19.59L34.7701 19.62ZM30.05 34.36C27.45 38.88 25.7001 40.85 24.0801 42.09C22.9501 42.95 21.5201 43.69 20.0801 43.45C18.0901 43.12 18.4801 40.62 18.8201 39.18C18.9901 38.46 19.2 37.94 19.23 37.87C20.72 34.31 23.1401 31.48 23.1401 31.48C26.8501 27.15 32.09 23.36 33.16 22.6C33.23 22.88 33.2901 23.15 33.3401 23.42C33.3501 23.87 33.4501 24.2 33.4501 24.22C34.0501 27.41 30.05 34.37 30.05 34.37V34.36Z" fill="#F4F4F4"/>
</svg>
