<svg width="238" height="70" viewBox="0 0 278 82" fill="none" xmlns="http://www.w3.org/2000/svg">
<path d="M179.12 51.75C182 48.31 185.01 44.97 187.72 41.39C188.81 39.94 189.29 38.01 189.97 36.28C191.69 31.91 194.02 31.02 197.2 31.12C200.34 31.22 202.76 33.9 203.61 37.65C203.66 37.89 203.82 38.1 204.15 38.8C204.9 36.44 205.38 34.46 206.17 32.61C206.6 31.59 207.4 30.29 208.31 30.02C209.57 29.64 211.26 29.79 212.41 30.39C212.86 30.62 212.49 32.74 212.22 33.94C211 39.42 209.66 44.88 208.41 50.36C208.27 50.97 208.41 51.65 208.45 53.01C210.28 51.3 211.9 50.13 213.08 48.62C217 43.62 220.76 38.51 224.59 33.44C225.41 32.35 226.1 31.1 227.13 30.26C227.7 29.8 228.93 29.79 229.68 30.07C230.02 30.19 230.04 31.54 229.97 32.31C229.48 37.63 228.9 42.95 228.44 48.28C228.38 49 228.86 49.77 229.1 50.51C229.81 50.22 230.71 50.12 231.2 49.62C234.8 45.97 238.23 42.15 241.88 38.55C244.52 35.95 245.35 33.38 242.37 30.35C244.42 29.33 246.35 29.23 247.73 30.48C249 31.63 249.68 33.42 250.82 35.23C252.42 33.39 253.96 31.54 255.59 29.77C258.85 26.21 262.46 23.62 266.14 20.5C267.75 19.14 269.39 17.75 271.33 16.94C273.27 16.13 275.61 15.96 277.43 17.01C275.55 18.45 272.91 20.55 269.82 23.18C262.58 29.34 260.15 32.3 259.44 33.18C255.53 38.04 252.46 41.5 253.9 44.21C255.15 46.58 256.23 49.03 257.44 51.42C258.13 52.78 257.63 53.25 256.26 53.29C254.38 53.34 252.84 52.85 251.95 51C251.38 49.82 250.67 48.7 249.8 47.16C247.47 50.89 245.5 54.22 245.59 58.34C243.14 58.38 240.66 55.58 241.12 53.03C241.46 51.16 242.21 49.32 243.01 47.57C244 45.39 245.28 43.33 246.32 41.17C246.59 40.6 246.42 39.81 246.45 39.12C246.26 39.09 246.07 39.06 245.88 39.03C244.47 41.25 243.25 43.63 241.59 45.64C239.47 48.2 237.18 50.7 234.6 52.79C232 54.9 229.3 54.27 226.79 52.06C224.73 50.24 223.03 48.43 223.57 45.43C223.6 45.24 223.33 45 223.02 44.5C221.82 46.05 220.81 47.52 219.63 48.83C217.7 50.97 215.81 53.17 213.64 55.04C210.5 57.76 208.65 57.29 205.37 54.83C202.6 52.75 202.35 50.33 202.84 47.41C203.15 45.57 203.48 43.72 203.45 41.73C203.04 42.52 202.62 43.3 202.22 44.09C201.07 46.36 200.04 48.71 198.73 50.89C197.47 52.99 195.65 54.62 192.95 54.08C190.27 53.55 188.78 51.56 187.87 49.11C187.71 48.68 187.63 48.22 187.43 47.45C186.88 48.06 186.47 48.46 186.13 48.91C183.85 51.9 181.67 54.97 179.3 57.88C177.62 59.94 176.81 62.22 176.35 64.79C175.78 68.01 174.9 71.18 174.1 74.36C173.67 76.06 172.56 76.83 170.78 76.34C168.85 75.81 167.27 74.04 167.67 72.53C168.28 70.21 168.87 67.81 169.95 65.7C171.58 62.52 172.43 59.22 172.77 55.72C173.21 51.19 173.71 46.66 174.12 42.13C174.28 40.33 174.34 38.52 174.36 36.72C174.39 34.95 175.58 34.4 176.99 34.27C178.49 34.13 178.94 35.16 178.92 36.47C178.86 40.74 178.8 45.01 178.72 49.28C178.71 50.05 178.62 50.81 178.56 51.58L179.12 51.76V51.75ZM192.51 48.94C192.47 49.19 192.61 49.43 192.84 49.52C193.05 49.6 193.29 49.54 193.44 49.36C194.38 47.87 197.07 43.45 198.41 39.21C198.62 38.55 199.15 36.74 198.58 34.75C198.47 34.36 198.03 32.85 197.24 32.78C196.66 32.73 196.14 33.47 195.82 33.97C193.77 37.17 193.2 40.44 193.2 40.44C192.83 42.55 192.48 45.44 192.52 48.94H192.51Z" fill="#493845"/>
<path d="M164.3 48.29C165.25 41.32 165.7 37.49 165.7 36.6C165.7 36.47 165.68 35.84 165.94 35.07C166.09 34.62 166.16 34.36 166.39 34.15C167.09 33.53 168.39 33.93 169.3 33.9C170.75 33.85 171.26 34.93 171.1 36.24C170.84 38.37 170.39 40.48 170.21 42.61C169.93 46 169.83 49.4 169.58 52.79C169.53 53.5 169.14 54.19 168.9 54.89C168.13 54.6 166.94 54.53 166.66 53.99C165.63 51.97 164.9 49.79 164.3 48.3V48.29Z" fill="#493845"/>
<path d="M160.27 31.97C159.2 30.08 157.76 28.47 157.76 28.47C156.69 27.27 155.64 26.37 154.8 25.74C154.8 25.74 152.96 24.33 150.81 23.48C143.91 20.76 135.58 22.68 129.26 28.43C131.34 25.82 134.36 21.16 135.08 14.83C135.31 12.79 136.23 4.75 132.22 1.97C129.55 0.12 126.41 0.149993 126.41 0.149993C126.41 0.149993 125.85 0.15001 125.28 0.23001C123.36 0.48001 116.55 2.54001 110.46 9.60001C104.09 16.99 102.74 24.98 102.49 26.56C102.33 27.6 102.08 29.47 102.09 32.48C102.12 39.45 103.51 46.54 106.92 55.78C109.37 62.41 113.39 71.56 120.02 81.82C120.26 81.84 121.91 81.95 123.13 80.7C123.97 79.84 124.13 78.83 124.18 78.48C119.72 72.29 116.93 66.51 115.17 62.14C110.45 50.4 109.85 40.48 109.69 36.83C109.48 31.96 109.85 27.93 110.22 25.2C110.22 25.2 112.07 15.41 118.73 8.13C119.6 7.17 121.23 5.54999 123.78 4.76999C124.86 4.43999 126.67 3.93 128.04 4.66C131.17 6.35 130.13 13.63 129.84 15.67C129.51 17.99 128.77 21.24 124.38 30.24C122.51 34.08 120.82 37.21 119.6 39.41C120.32 40.78 121.05 42.16 121.77 43.53C122.64 41.54 124.1 38.74 126.48 35.84C128.55 33.31 131.83 29.3 137.56 27.3C140.19 26.38 144.9 24.7 149.68 26.99C153.69 28.91 155.49 32.54 156.08 33.89C147.83 39.79 141.53 45.39 137.06 49.72C133.55 53.12 128.25 58.56 126.18 65.9C125.05 69.9 125.52 72.22 126.43 73.87C127.61 76 129.59 77.06 130.71 77.54C131.99 77.67 132.79 77.61 132.79 77.61C134.02 77.43 135.76 77.09 137.76 76.42C146.94 73.34 152.09 66.45 154.11 63.66C163.8 50.31 162.11 35.23 160.26 31.96L160.27 31.97ZM152.35 56.69C147.99 64.28 145.05 67.57 142.33 69.65C140.43 71.1 138.04 72.33 135.63 71.92C132.29 71.36 132.95 67.18 133.52 64.76C133.81 63.55 134.15 62.68 134.2 62.57C136.7 56.6 140.76 51.85 140.76 51.85C146.98 44.59 155.77 38.24 157.56 36.96C157.68 37.42 157.79 37.88 157.87 38.34C157.89 39.09 158.05 39.65 158.05 39.68C159.06 45.03 152.35 56.7 152.35 56.7V56.69Z" fill="#493845"/>
<path d="M179.33 20.3C179.4 22.49 177.89 24.63 176.67 24.42C176.04 24.31 175.17 23.36 175.09 22.72C174.87 20.81 176.06 18.75 177.08 19C178 19.23 178.8 19.98 179.32 20.3H179.33Z" fill="#493845"/>
<path d="M172.26 24.08C172.36 27.15 170.24 30.16 168.53 29.86C167.64 29.71 166.42 28.38 166.31 27.47C166 24.79 167.67 21.9 169.1 22.25C170.4 22.57 171.51 23.62 172.25 24.07L172.26 24.08Z" fill="#493845"/>
<path d="M17.26 54.88C18.09 52.22 18.92 49.56 19.74 46.89C21.47 41.23 22.9001 35.47 25.7801 30.22C26.8601 28.26 27.28 28.04 29.38 28.55C30.86 28.91 31.7 29.96 31.66 31.67C31.57 34.95 31.33 38.23 31.26 41.52C31.13 47.67 31.06 53.82 31.02 59.97C31 62.03 31.5301 63.9 33.4001 65.13C33.6001 65.26 33.7001 65.54 33.9001 65.82C33.6101 66.03 33.39 66.31 33.14 66.35C30.7 66.7 27.65 64.43 27.26 61.98C26.35 56.16 26.67 50.32 27.1 44.49C27.31 41.6 27.47 38.71 27.32 35.71C26.92 36.69 26.4 37.65 26.13 38.66C25.18 42.18 24.41 45.76 23.39 49.26C22.56 52.1 21.53 54.9 20.45 57.66C19.94 58.96 19.03 60.11 17.38 59.82C15.62 59.52 13.66 59.11 13.07 57.2C12.5 55.34 12.23 53.31 12.27 51.36C12.38 45.42 12.71 39.49 12.94 33.55C12.96 32.93 12.92 32.31 12.6 31.57C12.29 32.17 11.93 32.75 11.67 33.38C9.30001 39.11 7.88005 45.09 7.02005 51.21C6.36005 55.91 5.73002 60.61 5.06002 65.31C4.98002 65.87 4.95001 66.58 4.61001 66.94C4.06001 67.51 3.24004 68.23 2.58004 68.18C1.56004 68.1 0.400013 67.63 0.610013 66.09C1.43001 60.1 2.04003 54.08 3.07003 48.13C4.29003 41.07 6.42004 34.24 9.64004 27.8C9.94004 27.19 10.3 26.62 10.64 26.03C11.96 23.73 13.81 23.87 15.76 24.86C16.48 25.22 16.97 26.66 17.02 27.64C17.16 30.66 17.07 33.7 16.99 36.72C16.86 41.68 16.66 46.63 16.51 51.59C16.48 52.66 16.55 53.73 16.57 54.8C16.81 54.83 17.0401 54.86 17.2801 54.89L17.26 54.88Z" fill="#493845"/>
<path d="M85.64 25.9C85.15 25.54 84.23 25.51 83.41 25.62C82.32 33.21 81.33 40.82 80.4 48.43C79.93 52.26 79.67 56.12 79.32 59.97C79.13 59.97 78.93 59.98 78.74 59.99C78.41 58.81 77.97 57.66 77.77 56.46C76.77 50.58 75.97 44.65 74.81 38.8C74.25 35.97 73.21 33.21 72.11 30.53C71.47 28.97 70.02 28.02 68.16 28.24C66 28.49 63.83 28.79 63.06 31.35C62.44 33.4 61.64 35.4 61.18 37.48C59.39 45.55 59.72 53.76 59.78 61.94C59.79 63.61 60.82 64.49 62.67 64.53C64.29 64.56 64.78 63.46 64.96 62.15C65.05 61.51 64.96 60.85 64.98 60.2C65.05 54.42 64.89 48.63 65.29 42.88C65.54 39.33 66.67 35.84 67.41 32.32C67.67 32.32 67.94 32.32 68.2 32.33C68.49 33 68.91 33.65 69.05 34.36C69.62 37.16 70.11 39.97 70.63 42.78C71.89 49.6 73.11 56.43 74.46 63.23C74.67 64.3 75.22 65.63 76.05 66.21C79.3 68.47 82.92 67.09 84.09 63.34C84.3 62.66 84.51 61.95 84.55 61.25C85.14 51.14 85.68 41.02 86.27 30.91C86.35 29.61 86.32 28.28 86.35 26.97C86.22 26.56 86.01 26.19 85.63 25.91L85.64 25.9Z" fill="#493845"/>
<path d="M35.04 53.64C35.43 46.6 37.56 39.04 42.74 32.51C45.3 29.28 49.32 28.28 52.9 30.35C54.85 31.48 56.32 33.18 57.06 35.44C58.17 38.84 58.26 42.32 57.94 45.81C57.42 51.53 56.03 57.01 52.99 61.97C52.55 62.68 52.12 63.4 51.59 64.05C47.45 69.19 40.69 68.77 37.16 63.16C35.54 60.59 35.12 57.72 35.05 53.63L35.04 53.64ZM53.79 41.21C53.77 40.27 53.91 39.29 53.69 38.4C53.23 36.55 52.77 34.65 51.94 32.95C51.15 31.32 49.97 31.17 48.7 32.4C47.2 33.84 45.7 35.34 44.55 37.05C41.33 41.81 39.58 47.13 39.12 52.86C38.84 56.33 39 59.77 40.61 62.96C42.47 66.66 44.63 66.87 46.83 63.34C48.58 60.53 49.98 57.48 51.33 54.45C53.21 50.26 53.77 45.77 53.8 41.21H53.79Z" fill="#493845"/>
<path d="M89.83 59.42C90.43 51.19 91.01 42.95 91.64 34.72C91.81 32.45 92.19 30.19 92.29 27.92C92.36 26.46 92.88 25.98 94.02 25.99C95.25 25.99 96.27 26.38 96.44 27.99C96.57 29.21 96.56 30.47 96.44 31.69C95.78 38.25 94.53 44.81 94.56 51.37C94.58 55.66 93.72 59.7 93.58 63.89C93.55 64.82 93.79 66.38 92.36 66.36C91.18 66.36 90.04 64.77 90.04 63.34C90.04 62.04 90.1 60.75 90.13 59.45C90.03 59.44 89.94 59.43 89.84 59.42H89.83Z" fill="#493845"/>
<path d="M96.18 15.47C96.25 17.66 94.74 19.8 93.52 19.59C92.89 19.48 92.02 18.53 91.94 17.89C91.72 15.98 92.91 13.92 93.93 14.17C94.85 14.4 95.65 15.15 96.17 15.47H96.18Z" fill="#493845"/>
</svg>
