<?xml version="1.0" encoding="UTF-8"?>
<svg id="Layer_1" data-name="Layer 1" xmlns="http://www.w3.org/2000/svg" version="1.1" viewBox="0 0 1366 768">
  <defs>
    <style>
      .cls-1 {
        fill: #f4f4f4;
      }

      .cls-1, .cls-2, .cls-3, .cls-4 {
        stroke-width: 0px;
      }

      .cls-2 {
        fill: #493845;
      }

      .cls-3 {
        fill: #6b5b65;
      }

      .cls-4 {
        fill: #c197b0;
      }
    </style>
  </defs>
  <rect class="cls-1" y="315.5" width="1366" height="137"/>
  <g>
    <path class="cls-2" d="M723.12,395.47c2.88-3.44,5.89-6.78,8.6-10.36,1.09-1.45,1.57-3.38,2.25-5.11,1.72-4.37,4.05-5.26,7.23-5.16,3.14.1,5.56,2.78,6.41,6.53.05.24.21.45.54,1.15.75-2.36,1.23-4.34,2.02-6.19.43-1.02,1.23-2.32,2.14-2.59,1.26-.38,2.95-.23,4.1.37.45.23.08,2.35-.19,3.55-1.22,5.48-2.56,10.94-3.81,16.42-.14.61,0,1.29.04,2.65,1.83-1.71,3.45-2.88,4.63-4.39,3.92-5,7.68-10.11,11.51-15.18.82-1.09,1.51-2.34,2.54-3.18.57-.46,1.8-.47,2.55-.19.34.12.36,1.47.29,2.24-.49,5.32-1.07,10.64-1.53,15.97-.06.72.42,1.49.66,2.23.71-.29,1.61-.39,2.1-.89,3.6-3.65,7.03-7.47,10.68-11.07,2.64-2.6,3.47-5.17.49-8.2,2.05-1.02,3.98-1.12,5.36.13,1.27,1.15,1.95,2.94,3.09,4.75,1.6-1.84,3.14-3.69,4.77-5.46,3.26-3.56,6.87-6.15,10.55-9.27,1.61-1.36,3.25-2.75,5.19-3.56,1.94-.81,4.28-.98,6.1.07-1.88,1.44-4.52,3.54-7.61,6.17-7.24,6.16-9.67,9.12-10.38,10-3.91,4.86-6.98,8.32-5.54,11.03,1.25,2.37,2.33,4.82,3.54,7.21.69,1.36.19,1.83-1.18,1.87-1.88.05-3.42-.44-4.31-2.29-.57-1.18-1.28-2.3-2.15-3.84-2.33,3.73-4.3,7.06-4.21,11.18-2.45.04-4.93-2.76-4.47-5.31.34-1.87,1.09-3.71,1.89-5.46.99-2.18,2.27-4.24,3.31-6.4.27-.57.1-1.36.13-2.05-.19-.03-.38-.06-.57-.09-1.41,2.22-2.63,4.6-4.29,6.61-2.12,2.56-4.41,5.06-6.99,7.15-2.6,2.11-5.3,1.48-7.81-.73-2.06-1.82-3.76-3.63-3.22-6.63.03-.19-.24-.43-.55-.93-1.2,1.55-2.21,3.02-3.39,4.33-1.93,2.14-3.82,4.34-5.99,6.21-3.14,2.72-4.99,2.25-8.27-.21-2.77-2.08-3.02-4.5-2.53-7.42.31-1.84.64-3.69.61-5.68-.41.79-.83,1.57-1.23,2.36-1.15,2.27-2.18,4.62-3.49,6.8-1.26,2.1-3.08,3.73-5.78,3.19-2.68-.53-4.17-2.52-5.08-4.97-.16-.43-.24-.89-.44-1.66-.55.61-.96,1.01-1.3,1.46-2.28,2.99-4.46,6.06-6.83,8.97-1.68,2.06-2.49,4.34-2.95,6.91-.57,3.22-1.45,6.39-2.25,9.57-.43,1.7-1.54,2.47-3.32,1.98-1.93-.53-3.51-2.3-3.11-3.81.61-2.32,1.2-4.72,2.28-6.83,1.63-3.18,2.48-6.48,2.82-9.98.44-4.53.94-9.06,1.35-13.59.16-1.8.22-3.61.24-5.41.03-1.77,1.22-2.32,2.63-2.45,1.5-.14,1.95.89,1.93,2.2-.06,4.27-.12,8.54-.2,12.81-.01.77-.1,1.53-.16,2.3l.56.18ZM736.51,392.66c-.04.25.1.49.33.58.21.08.45.02.6-.16.94-1.49,3.63-5.91,4.97-10.15.21-.66.74-2.47.17-4.46-.11-.39-.55-1.9-1.34-1.97-.58-.05-1.1.69-1.42,1.19-2.05,3.2-2.62,6.47-2.62,6.47-.37,2.11-.72,5-.68,8.5Z"/>
    <path class="cls-2" d="M708.3,392.02c.95-6.97,1.4-10.8,1.4-11.69,0-.13-.02-.76.24-1.53.15-.45.22-.71.45-.92.7-.62,2-.22,2.91-.25,1.45-.05,1.96,1.03,1.8,2.34-.26,2.13-.71,4.24-.89,6.37-.28,3.39-.38,6.79-.63,10.18-.05.71-.44,1.4-.68,2.1-.77-.29-1.96-.36-2.24-.9-1.03-2.02-1.76-4.2-2.36-5.69Z"/>
    <path class="cls-2" d="M704.27,375.69c-1.07-1.89-2.51-3.5-2.51-3.5-1.07-1.2-2.12-2.1-2.96-2.73,0,0-1.84-1.41-3.99-2.26-6.9-2.72-15.23-.8-21.55,4.95,2.08-2.61,5.1-7.27,5.82-13.6.23-2.04,1.15-10.08-2.86-12.86-2.67-1.85-5.81-1.82-5.81-1.82,0,0-.56,0-1.13.08-1.92.25-8.73,2.31-14.82,9.37-6.37,7.39-7.72,15.38-7.97,16.96-.16,1.04-.41,2.91-.4,5.92.03,6.97,1.42,14.06,4.83,23.3,2.45,6.63,6.47,15.78,13.1,26.04.24.02,1.89.13,3.11-1.12.84-.86,1-1.87,1.05-2.22-4.46-6.19-7.25-11.97-9.01-16.34-4.72-11.74-5.32-21.66-5.48-25.31-.21-4.87.16-8.9.53-11.63,0,0,1.85-9.79,8.51-17.07.87-.96,2.5-2.58,5.05-3.36,1.08-.33,2.89-.84,4.26-.11,3.13,1.69,2.09,8.97,1.8,11.01-.33,2.32-1.07,5.57-5.46,14.57-1.87,3.84-3.56,6.97-4.78,9.17.72,1.37,1.45,2.75,2.17,4.12.87-1.99,2.33-4.79,4.71-7.69,2.07-2.53,5.35-6.54,11.08-8.54,2.63-.92,7.34-2.6,12.12-.31,4.01,1.92,5.81,5.55,6.4,6.9-8.25,5.9-14.55,11.5-19.02,15.83-3.51,3.4-8.81,8.84-10.88,16.18-1.13,4-.66,6.32.25,7.97,1.18,2.13,3.16,3.19,4.28,3.67,1.28.13,2.08.07,2.08.07,1.23-.18,2.97-.52,4.97-1.19,9.18-3.08,14.33-9.97,16.35-12.76,9.69-13.35,8-28.43,6.15-31.7ZM696.35,400.41c-4.36,7.59-7.3,10.88-10.02,12.96-1.9,1.45-4.29,2.68-6.7,2.27-3.34-.56-2.68-4.74-2.11-7.16.29-1.21.63-2.08.68-2.19,2.5-5.97,6.56-10.72,6.56-10.72,6.22-7.26,15.01-13.61,16.8-14.89.12.46.23.92.31,1.38,0,0,0,0,0,0,.02.75.18,1.31.18,1.34,1.01,5.35-5.7,17.02-5.7,17.02Z"/>
    <path class="cls-2" d="M723.33,364.02c.07,2.19-1.44,4.33-2.66,4.12-.63-.11-1.5-1.06-1.58-1.7-.22-1.91.97-3.97,1.99-3.72.92.23,1.72.98,2.24,1.3Z"/>
    <path class="cls-2" d="M716.26,367.8c.1,3.07-2.02,6.08-3.73,5.78-.89-.15-2.11-1.48-2.22-2.39-.31-2.68,1.36-5.57,2.79-5.22,1.3.32,2.41,1.37,3.15,1.82Z"/>
    <path class="cls-2" d="M561.26,398.61c.83-2.66,1.66-5.32,2.48-7.99,1.73-5.66,3.16-11.42,6.04-16.67,1.08-1.96,1.5-2.18,3.6-1.67,1.48.36,2.32,1.41,2.28,3.12-.09,3.28-.33,6.56-.4,9.85-.13,6.15-.2,12.3-.24,18.45-.02,2.06.51,3.93,2.38,5.16.2.13.3.41.5.69-.29.21-.51.49-.76.53-2.44.35-5.49-1.92-5.88-4.37-.91-5.82-.59-11.66-.16-17.49.21-2.89.37-5.78.22-8.78-.4.98-.92,1.94-1.19,2.95-.95,3.52-1.72,7.1-2.74,10.6-.83,2.84-1.86,5.64-2.94,8.4-.51,1.3-1.42,2.45-3.07,2.16-1.76-.3-3.72-.71-4.31-2.62-.57-1.86-.84-3.89-.8-5.84.11-5.94.44-11.87.67-17.81.02-.62-.02-1.24-.34-1.98-.31.6-.67,1.18-.93,1.81-2.37,5.73-3.79,11.71-4.65,17.83-.66,4.7-1.29,9.4-1.96,14.1-.08.56-.11,1.27-.45,1.63-.55.57-1.37,1.29-2.03,1.24-1.02-.08-2.18-.55-1.97-2.09.82-5.99,1.43-12.01,2.46-17.96,1.22-7.06,3.35-13.89,6.57-20.33.3-.61.66-1.18,1-1.77,1.32-2.3,3.17-2.16,5.12-1.17.72.36,1.21,1.8,1.26,2.78.14,3.02.05,6.06-.03,9.08-.13,4.96-.33,9.91-.48,14.87-.03,1.07.04,2.14.06,3.21.24.03.47.06.71.09Z"/>
    <path class="cls-2" d="M629.64,369.62c-.49-.36-1.41-.39-2.23-.28-1.09,7.59-2.08,15.2-3.01,22.81-.47,3.83-.73,7.69-1.08,11.54-.19,0-.39.01-.58.02-.33-1.18-.77-2.33-.97-3.53-1-5.88-1.8-11.81-2.96-17.66-.56-2.83-1.6-5.59-2.7-8.27-.64-1.56-2.09-2.51-3.95-2.29-2.16.25-4.33.55-5.1,3.11-.62,2.05-1.42,4.05-1.88,6.13-1.79,8.07-1.46,16.28-1.4,24.46.01,1.67,1.04,2.55,2.89,2.59,1.62.03,2.11-1.07,2.29-2.38.09-.64,0-1.3.02-1.95.07-5.78-.09-11.57.31-17.32.25-3.55,1.38-7.04,2.12-10.56.26,0,.53,0,.79.01.29.67.71,1.32.85,2.03.57,2.8,1.06,5.61,1.58,8.42,1.26,6.82,2.48,13.65,3.83,20.45.21,1.07.76,2.4,1.59,2.98,3.25,2.26,6.87.88,8.04-2.87.21-.68.42-1.39.46-2.09.59-10.11,1.13-20.23,1.72-30.34.08-1.3.05-2.63.08-3.94-.13-.41-.34-.78-.72-1.06Z"/>
    <path class="cls-2" d="M579.04,397.36c.39-7.04,2.52-14.6,7.7-21.13,2.56-3.23,6.58-4.23,10.16-2.16,1.95,1.13,3.42,2.83,4.16,5.09,1.11,3.4,1.2,6.88.88,10.37-.52,5.72-1.91,11.2-4.95,16.16-.44.71-.87,1.43-1.4,2.08-4.14,5.14-10.9,4.72-14.43-.89-1.62-2.57-2.04-5.44-2.11-9.53ZM597.79,384.93c-.02-.94.12-1.92-.1-2.81-.46-1.85-.92-3.75-1.75-5.45-.79-1.63-1.97-1.78-3.24-.55-1.5,1.44-3,2.94-4.15,4.65-3.22,4.76-4.97,10.08-5.43,15.81-.28,3.47-.12,6.91,1.49,10.1,1.86,3.7,4.02,3.91,6.22.38,1.75-2.81,3.15-5.86,4.5-8.89,1.88-4.19,2.44-8.68,2.47-13.24Z"/>
    <path class="cls-2" d="M633.83,403.14c.6-8.23,1.18-16.47,1.81-24.7.17-2.27.55-4.53.65-6.8.07-1.46.59-1.94,1.73-1.93,1.23,0,2.25.39,2.42,2,.13,1.22.12,2.48,0,3.7-.66,6.56-1.91,13.12-1.88,19.68.02,4.29-.84,8.33-.98,12.52-.03.93.21,2.49-1.22,2.47-1.18,0-2.32-1.59-2.32-3.02,0-1.3.06-2.59.09-3.89-.1-.01-.19-.02-.29-.03Z"/>
    <path class="cls-2" d="M640.18,359.2c.07,2.19-1.44,4.33-2.66,4.12-.63-.11-1.5-1.06-1.58-1.7-.22-1.91.97-3.97,1.99-3.72.92.23,1.72.98,2.24,1.3Z"/>
  </g>
  <g>
    <path class="cls-4" d="M65.06,386.92c.44.51.92.9,1.46,1.17s1.13.41,1.79.41c.8,0,1.44-.21,1.94-.65.5-.43.75-.99.75-1.67s-.16-1.17-.47-1.56c-.32-.39-.75-.72-1.31-1-.56-.27-1.2-.54-1.93-.81-.43-.15-.91-.35-1.44-.61-.53-.26-1.04-.58-1.52-.97-.48-.39-.88-.87-1.19-1.44-.31-.57-.47-1.26-.47-2.08,0-.93.24-1.75.72-2.45.48-.7,1.13-1.25,1.95-1.64s1.75-.58,2.8-.58,1.92.18,2.69.55,1.41.83,1.93,1.39c.52.56.93,1.15,1.23,1.77l-2.39,1.34c-.22-.43-.49-.83-.82-1.21s-.72-.67-1.16-.9c-.44-.22-.95-.34-1.53-.34-.81,0-1.41.19-1.79.56-.38.37-.57.81-.57,1.31,0,.45.14.85.41,1.21.27.36.7.69,1.28,1.01.58.32,1.33.64,2.26.97.51.18,1.03.41,1.55.7.52.28,1,.63,1.43,1.06.43.42.77.92,1.03,1.48.26.56.39,1.23.39,1.99,0,.81-.16,1.54-.47,2.19-.32.65-.75,1.19-1.29,1.63-.55.44-1.17.78-1.85,1.02-.69.24-1.41.36-2.15.36-1.03,0-1.98-.2-2.85-.61s-1.63-.95-2.28-1.63c-.65-.68-1.16-1.42-1.54-2.21l2.19-1.52c.38.66.79,1.25,1.23,1.75Z"/>
    <path class="cls-4" d="M79.55,390.76h-2.69v-19.4h2.69v19.4ZM83.72,381.88c-.34-.43-.88-.65-1.63-.65-.5,0-.94.11-1.32.32-.38.22-.68.51-.9.9-.22.38-.32.83-.32,1.34h-.65c0-.91.17-1.72.5-2.44.33-.71.8-1.28,1.41-1.72.6-.43,1.34-.65,2.2-.65s1.56.17,2.15.5c.59.33,1.03.82,1.33,1.48.3.66.45,1.47.45,2.45v7.34h-2.71v-6.96c0-.85-.17-1.48-.51-1.92Z"/>
    <path class="cls-4" d="M90.29,381.93c.54-.9,1.27-1.6,2.2-2.1.93-.51,1.98-.76,3.16-.76s2.23.25,3.15.76c.92.51,1.65,1.21,2.2,2.1s.82,1.93.82,3.11-.27,2.19-.82,3.1-1.28,1.61-2.2,2.11c-.92.51-1.97.76-3.15.76s-2.23-.25-3.16-.76c-.93-.51-1.66-1.21-2.2-2.11-.54-.9-.81-1.94-.81-3.1s.27-2.21.81-3.11ZM92.69,386.92c.3.54.71.96,1.22,1.27.51.31,1.09.46,1.74.46s1.21-.15,1.73-.46.93-.73,1.23-1.27c.3-.54.45-1.17.45-1.88s-.15-1.34-.45-1.89c-.3-.55-.71-.97-1.23-1.27s-1.1-.45-1.73-.45-1.23.15-1.74.45c-.51.3-.92.72-1.22,1.27-.3.55-.45,1.18-.45,1.89s.15,1.34.45,1.88Z"/>
    <path class="cls-4" d="M104.25,396.23v-16.91h2.71v16.91h-2.71ZM115.67,388.29c-.51.9-1.19,1.59-2.04,2.06s-1.77.71-2.76.71-1.83-.25-2.55-.73c-.72-.49-1.28-1.19-1.67-2.09-.39-.9-.58-1.97-.58-3.2s.19-2.31.58-3.21.95-1.59,1.67-2.08c.72-.49,1.57-.73,2.55-.73s1.92.24,2.76.71c.85.47,1.53,1.16,2.04,2.05.51.9.77,1.98.77,3.26s-.26,2.34-.77,3.25ZM113.18,383.09c-.31-.54-.73-.95-1.26-1.22-.52-.27-1.1-.41-1.73-.41-.51,0-1.02.14-1.52.41-.5.27-.91.68-1.23,1.21-.32.53-.48,1.19-.48,1.97s.16,1.43.48,1.96.73.93,1.23,1.21c.5.27,1,.41,1.52.41.63,0,1.21-.14,1.73-.41.52-.27.94-.68,1.26-1.22.31-.54.47-1.19.47-1.95s-.16-1.41-.47-1.95Z"/>
  </g>
  <g>
    <path class="cls-3" d="M353.64,377.77c.45-1.09,1.08-2.04,1.9-2.85.82-.8,1.78-1.43,2.89-1.88s2.29-.67,3.57-.67,2.51.22,3.61.67,2.05,1.07,2.87,1.88c.82.8,1.46,1.75,1.9,2.85s.67,2.3.67,3.61-.22,2.5-.67,3.61-1.08,2.07-1.89,2.89c-.81.81-1.77,1.45-2.87,1.9-1.1.46-2.31.68-3.62.68s-2.5-.23-3.61-.68c-1.11-.46-2.07-1.09-2.87-1.9-.8-.81-1.43-1.77-1.88-2.89s-.67-2.31-.67-3.61.22-2.51.67-3.61ZM356.83,384.57c.51.94,1.21,1.67,2.1,2.2.9.53,1.92.8,3.06.8s2.19-.27,3.07-.8c.89-.53,1.58-1.26,2.09-2.2.51-.94.76-2,.76-3.2s-.25-2.26-.75-3.2-1.19-1.67-2.08-2.2c-.89-.53-1.92-.8-3.1-.8s-2.16.27-3.06.8c-.9.53-1.6,1.26-2.1,2.2s-.76,2-.76,3.2.25,2.26.76,3.2Z"/>
    <path class="cls-3" d="M376.97,387.49c.35.45.88.67,1.59.67.51,0,.96-.1,1.34-.31.38-.21.68-.51.9-.89.22-.39.32-.84.32-1.36v-6.97h2.69v11.44h-2.69v-1.77c-.36.66-.83,1.16-1.41,1.5-.57.34-1.26.51-2.05.51-1.28,0-2.26-.4-2.95-1.19-.69-.8-1.03-1.87-1.03-3.23v-7.26h2.76v6.97c0,.81.17,1.44.52,1.89Z"/>
    <path class="cls-3" d="M389.9,390.08h-2.66v-11.44h2.66v11.44ZM392.62,381.05c-.22-.1-.49-.15-.82-.15-.45,0-.81.12-1.09.35-.28.23-.49.55-.61.96-.12.41-.19.88-.19,1.43l-.9-.52c0-.91.17-1.72.51-2.42.34-.7.78-1.26,1.32-1.68.54-.41,1.1-.62,1.68-.62.41,0,.8.06,1.17.19.36.12.67.34.92.66l-1.29,2.26c-.25-.2-.48-.35-.7-.45Z"/>
    <path class="cls-3" d="M405.54,387.35c.37.29.75.51,1.13.65.38.14.76.21,1.14.21.48,0,.86-.11,1.13-.32.27-.21.41-.51.41-.89,0-.33-.11-.62-.32-.86-.22-.24-.51-.45-.9-.62-.38-.17-.83-.35-1.34-.53-.51-.2-1.02-.44-1.53-.71-.51-.27-.92-.63-1.24-1.08s-.48-1.01-.48-1.69.18-1.28.53-1.74c.36-.46.84-.81,1.44-1.03.6-.22,1.26-.34,1.95-.34.63,0,1.22.09,1.78.27.56.18,1.06.42,1.5.72.45.3.83.64,1.14,1.02l-1.49,1.59c-.38-.45-.84-.81-1.37-1.09-.53-.28-1.08-.42-1.64-.42-.38,0-.7.08-.95.25-.25.17-.37.41-.37.72,0,.27.11.5.34.71.22.21.52.39.9.56.37.17.79.34,1.26.52.63.25,1.21.52,1.74.82.53.3.96.66,1.28,1.09.32.43.49,1,.49,1.69,0,1.08-.37,1.94-1.11,2.6-.74.66-1.74.98-3,.98-.78,0-1.5-.12-2.15-.36-.66-.24-1.23-.56-1.72-.95-.49-.39-.9-.8-1.23-1.23l1.57-1.57c.36.4.73.74,1.11,1.03Z"/>
    <path class="cls-3" d="M419.35,378.64v2.36h-6.49v-2.36h6.49ZM417.44,374.66v15.42h-2.66v-15.42h2.66Z"/>
    <path class="cls-3" d="M421.13,381.25c.54-.9,1.27-1.6,2.2-2.1.93-.51,1.98-.76,3.16-.76s2.23.25,3.15.76c.92.51,1.65,1.21,2.2,2.1s.82,1.93.82,3.11-.27,2.19-.82,3.1-1.28,1.61-2.2,2.11c-.92.51-1.97.76-3.15.76s-2.23-.25-3.16-.76c-.93-.51-1.66-1.21-2.2-2.11-.54-.9-.81-1.94-.81-3.1s.27-2.21.81-3.11ZM423.53,386.24c.3.54.71.96,1.22,1.27.51.31,1.09.46,1.74.46s1.21-.15,1.73-.46.93-.73,1.23-1.27c.3-.54.45-1.17.45-1.88s-.15-1.34-.45-1.89c-.3-.55-.71-.97-1.23-1.27s-1.1-.45-1.73-.45-1.23.15-1.74.45c-.51.3-.92.72-1.22,1.27-.3.55-.45,1.18-.45,1.89s.15,1.34.45,1.88Z"/>
    <path class="cls-3" d="M437.86,390.08h-2.66v-11.44h2.66v11.44ZM440.57,381.05c-.22-.1-.49-.15-.82-.15-.45,0-.81.12-1.09.35-.28.23-.49.55-.61.96-.12.41-.19.88-.19,1.43l-.9-.52c0-.91.17-1.72.51-2.42.34-.7.78-1.26,1.32-1.68.54-.41,1.1-.62,1.68-.62.41,0,.8.06,1.17.19.36.12.67.34.92.66l-1.29,2.26c-.25-.2-.48-.35-.7-.45Z"/>
    <path class="cls-3" d="M447.81,395.55h-2.86l2.98-6.82-4.6-10.1h3.08l3.66,9.05-1.27-.08,3.58-8.98h2.89l-7.46,16.91Z"/>
  </g>
  <g>
    <path class="cls-3" d="M213.66,372.67v18.28l-12.71-12.56v11.69h-2.89v-18.28l12.71,12.56v-11.69h2.89Z"/>
    <path class="cls-3" d="M219.19,389.58c-.89-.5-1.57-1.19-2.05-2.09s-.72-1.94-.72-3.13.24-2.26.73-3.16c.49-.9,1.18-1.59,2.08-2.08.9-.49,1.95-.73,3.16-.73s2.24.23,3.08.7c.85.46,1.5,1.13,1.95,2,.46.87.68,1.92.68,3.15,0,.13,0,.27-.01.42,0,.15-.02.26-.04.32h-10.05v-1.84h7.76l-.82,1.14c.05-.1.1-.24.16-.41.06-.17.09-.32.09-.44,0-.61-.12-1.14-.36-1.59-.24-.45-.57-.8-1-1.04-.42-.25-.92-.37-1.48-.37-.68,0-1.26.15-1.74.45-.48.3-.85.73-1.09,1.29-.25.56-.38,1.26-.4,2.09,0,.83.12,1.53.37,2.1.25.57.62,1.01,1.11,1.31.49.3,1.08.45,1.78.45s1.37-.15,1.92-.45c.55-.3,1-.75,1.37-1.37l2.31.95c-.6,1.03-1.37,1.8-2.31,2.31-.95.51-2.08.77-3.41.77-1.16,0-2.19-.25-3.07-.75Z"/>
    <path class="cls-3" d="M231.49,378.64l2.69,6.81,3.16-7.69,3.36,7.71,2.69-6.84h2.91l-5.35,12.26-3.58-7.74-3.43,7.74-5.35-12.26h2.91Z"/>
    <path class="cls-3" d="M255.88,372.92c.34-.31.73-.47,1.18-.47.48,0,.88.16,1.21.47s.48.7.48,1.17-.16.83-.48,1.16c-.32.32-.73.48-1.21.48-.45,0-.84-.16-1.18-.48-.34-.32-.51-.71-.51-1.16s.17-.85.51-1.17ZM258.38,378.64v11.44h-2.64v-11.44h2.64Z"/>
    <path class="cls-3" d="M268.93,381.2c-.35-.43-.89-.65-1.62-.65-.5,0-.94.1-1.32.31-.38.21-.68.51-.9.9-.22.39-.32.84-.32,1.36v6.96h-2.69v-11.44h2.69v1.77c.36-.68.83-1.19,1.41-1.52.57-.33,1.26-.5,2.05-.5,1.29,0,2.28.39,2.96,1.18.68.79,1.02,1.87,1.02,3.25v7.26h-2.76v-6.96c0-.85-.17-1.48-.52-1.92Z"/>
  </g>
  <g>
    <path class="cls-3" d="M1074.55,382.42l-.12.24-2.13,5.21h-1.26l6.26-14.73,6.26,14.73h-1.26l-2.11-5.13-.1-.26-2.8-6.77-2.76,6.71ZM1074.06,382.05h6.55l.36,1.05h-7.28l.36-1.05Z"/>
    <path class="cls-3" d="M1086,383.96c.51.92,1.2,1.64,2.07,2.17s1.83.79,2.9.79c.68,0,1.29-.07,1.84-.22.55-.15,1.06-.37,1.51-.67.45-.3.85-.65,1.21-1.05v1.5c-.59.53-1.24.92-1.95,1.19-.7.26-1.57.4-2.61.4-.99,0-1.9-.18-2.75-.54-.84-.36-1.58-.86-2.2-1.51-.62-.65-1.11-1.42-1.46-2.31-.35-.89-.53-1.86-.53-2.92s.18-2.03.53-2.92c.35-.89.84-1.66,1.46-2.31.62-.65,1.35-1.15,2.2-1.51.84-.36,1.76-.54,2.75-.54,1.04,0,1.91.13,2.61.4.7.26,1.35.66,1.95,1.19v1.48c-.35-.41-.76-.75-1.22-1.04-.46-.29-.97-.51-1.52-.66-.55-.15-1.16-.22-1.82-.22-1.07,0-2.03.26-2.9.78s-1.55,1.24-2.07,2.16c-.51.92-.77,1.99-.77,3.2s.26,2.26.77,3.18Z"/>
    <path class="cls-3" d="M1099.88,383.96c.51.92,1.2,1.64,2.07,2.17s1.83.79,2.9.79c.68,0,1.29-.07,1.84-.22.55-.15,1.06-.37,1.51-.67.45-.3.85-.65,1.21-1.05v1.5c-.59.53-1.24.92-1.95,1.19-.7.26-1.57.4-2.61.4-.99,0-1.9-.18-2.75-.54-.84-.36-1.58-.86-2.2-1.51-.62-.65-1.11-1.42-1.46-2.31-.35-.89-.53-1.86-.53-2.92s.18-2.03.53-2.92c.35-.89.84-1.66,1.46-2.31.62-.65,1.35-1.15,2.2-1.51.84-.36,1.76-.54,2.75-.54,1.04,0,1.91.13,2.61.4.7.26,1.35.66,1.95,1.19v1.48c-.35-.41-.76-.75-1.22-1.04-.46-.29-.97-.51-1.52-.66-.55-.15-1.16-.22-1.82-.22-1.07,0-2.03.26-2.9.78s-1.55,1.24-2.07,2.16c-.51.92-.77,1.99-.77,3.2s.26,2.26.77,3.18Z"/>
    <path class="cls-3" d="M1112.32,377.89c.35-.88.84-1.65,1.48-2.31.63-.66,1.38-1.17,2.24-1.53s1.79-.55,2.81-.55,1.95.18,2.81.55c.86.36,1.6.88,2.24,1.53s1.13,1.43,1.48,2.31c.35.89.53,1.85.53,2.89s-.18,2-.53,2.89c-.35.89-.84,1.66-1.48,2.31-.63.66-1.38,1.17-2.24,1.53-.86.36-1.79.55-2.81.55s-1.95-.18-2.81-.55c-.86-.37-1.6-.88-2.24-1.53-.64-.65-1.13-1.42-1.48-2.31-.35-.88-.53-1.85-.53-2.89s.18-2,.53-2.89ZM1113.73,383.94c.51.93,1.2,1.67,2.09,2.2.88.54,1.89.8,3.03.8s2.14-.27,3.03-.8c.88-.53,1.58-1.27,2.08-2.2.5-.93.75-1.99.75-3.16s-.25-2.25-.75-3.17c-.5-.93-1.19-1.65-2.08-2.19s-1.89-.8-3.03-.8-2.15.27-3.03.8c-.89.53-1.58,1.26-2.09,2.19-.51.93-.76,1.98-.76,3.17s.25,2.23.76,3.16Z"/>
    <path class="cls-3" d="M1129.51,373.68v9.61c0,1.14.3,2.04.89,2.72s1.44,1.01,2.53,1.01,1.94-.34,2.53-1.01c.59-.68.89-1.58.89-2.72v-9.61h1.11v9.61c0,.7-.1,1.35-.3,1.94-.2.59-.5,1.09-.89,1.51-.39.42-.87.75-1.43.98-.56.24-1.2.35-1.92.35s-1.35-.12-1.92-.35-1.04-.56-1.43-.98-.69-.92-.89-1.51c-.2-.59-.3-1.23-.3-1.94v-9.61h1.11Z"/>
    <path class="cls-3" d="M1152.68,373.68v14.73l-10.78-12.38v11.84h-1.12v-14.73l10.78,12.42v-11.88h1.12Z"/>
    <path class="cls-3" d="M1154.66,373.68h8.57v1.05h-3.73v13.13h-1.12v-13.13h-3.73v-1.05Z"/>
  </g>
  <g>
    <path class="cls-3" d="M924.23,385.4c.33.49.74.88,1.23,1.17.49.29,1.07.44,1.74.44.92,0,1.64-.25,2.16-.76.52-.51.78-1.15.78-1.94,0-.69-.16-1.24-.47-1.66-.31-.42-.71-.76-1.21-1.02-.49-.26-1.01-.5-1.55-.7-.41-.15-.83-.33-1.27-.54s-.85-.47-1.23-.77c-.38-.3-.69-.67-.92-1.1-.24-.43-.35-.95-.35-1.56,0-.68.16-1.27.49-1.79s.78-.93,1.36-1.22c.58-.29,1.24-.44,1.97-.44s1.41.14,1.96.43c.55.28,1,.64,1.37,1.07.37.43.64.88.83,1.34l-.97.55c-.15-.36-.36-.72-.64-1.07-.28-.35-.62-.65-1.04-.88-.42-.24-.94-.35-1.56-.35-.83,0-1.46.21-1.91.64-.45.43-.67.96-.67,1.59,0,.53.13.98.38,1.36s.64.72,1.16,1.02,1.15.59,1.91.86c.39.15.8.33,1.22.55s.8.49,1.15.81.62.71.84,1.17.32.99.32,1.61c0,.58-.1,1.11-.31,1.58-.21.47-.5.88-.87,1.23-.37.34-.81.61-1.31.79-.5.18-1.04.27-1.62.27-.82,0-1.55-.17-2.17-.51-.62-.34-1.14-.79-1.56-1.36-.42-.57-.74-1.18-.97-1.84l.91-.57c.23.59.51,1.14.84,1.62Z"/>
    <path class="cls-3" d="M935.03,373.68v14.19h-1.12v-14.19h1.12ZM934.5,373.68h7.03v1.05h-7.03v-1.05ZM934.5,379.56h6.63v1.05h-6.63v-1.05ZM934.5,386.82h7.03v1.05h-7.03v-1.05Z"/>
    <path class="cls-3" d="M946.72,382.42l-.12.24-2.13,5.21h-1.26l6.26-14.73,6.26,14.73h-1.26l-2.11-5.13-.1-.26-2.8-6.77-2.76,6.71ZM946.23,382.05h6.55l.36,1.05h-7.28l.36-1.05Z"/>
    <path class="cls-3" d="M958.74,373.68v14.19h-1.12v-14.19h1.12ZM958.21,373.68h2.66c.92,0,1.74.16,2.46.49.72.32,1.29.79,1.71,1.4s.63,1.35.63,2.23-.21,1.61-.63,2.23-.99,1.09-1.71,1.41c-.72.32-1.54.48-2.46.48h-2.66v-.99h2.66c.72,0,1.35-.12,1.92-.35.56-.24,1-.59,1.31-1.05.31-.47.47-1.04.47-1.71s-.16-1.24-.48-1.7c-.32-.46-.75-.81-1.31-1.05-.55-.24-1.19-.37-1.91-.37h-2.66v-.99ZM961.27,381.1l4.84,6.77h-1.38l-4.7-6.77h1.24Z"/>
    <path class="cls-3" d="M969.38,383.96c.51.92,1.2,1.64,2.07,2.17s1.83.79,2.9.79c.68,0,1.29-.07,1.84-.22.55-.15,1.06-.37,1.51-.67.45-.3.85-.65,1.21-1.05v1.5c-.59.53-1.24.92-1.95,1.19-.7.26-1.57.4-2.61.4-.99,0-1.9-.18-2.75-.54-.84-.36-1.58-.86-2.2-1.51-.62-.65-1.11-1.42-1.46-2.31-.35-.89-.53-1.86-.53-2.92s.18-2.03.53-2.92c.35-.89.84-1.66,1.46-2.31.62-.65,1.35-1.15,2.2-1.51.84-.36,1.76-.54,2.75-.54,1.04,0,1.91.13,2.61.4.7.26,1.35.66,1.95,1.19v1.48c-.35-.41-.76-.75-1.22-1.04-.46-.29-.97-.51-1.52-.66-.55-.15-1.16-.22-1.82-.22-1.07,0-2.03.26-2.9.78s-1.55,1.24-2.07,2.16c-.51.92-.77,1.99-.77,3.2s.26,2.26.77,3.18Z"/>
    <path class="cls-3" d="M983.22,373.68v14.19h-1.12v-14.19h1.12ZM982.69,379.62h9.57v1.05h-9.57v-1.05ZM992.64,373.68v14.19h-1.13v-14.19h1.13Z"/>
  </g>
  <path class="cls-3" d="M1300.07,374.57l4.38-1.05v14.35h-1.12v-12.99l-3.26.85v-1.16Z"/>
  <path class="cls-2" d="M1262.94,362.83c.41-.78.1-1.75-.68-2.16s-1.75-.1-2.16.68l-6.19,11.91h-5.69c-1.18,0-2.13.95-2.13,2.13s.95,2.13,2.13,2.13l3.45,13.8c.47,1.9,2.18,3.23,4.13,3.23h18.89c1.96,0,3.66-1.33,4.13-3.23l3.45-13.8c1.18,0,2.13-.95,2.13-2.13s-.95-2.13-2.13-2.13h-5.69l-6.19-11.91c-.41-.78-1.37-1.08-2.16-.68s-1.08,1.37-.68,2.16l5.43,10.44h-15.47l5.43-10.44ZM1258.86,380.72v6.39c0,.59-.48,1.06-1.06,1.06s-1.06-.48-1.06-1.06v-6.39c0-.59.48-1.06,1.06-1.06s1.06.48,1.06,1.06ZM1265.24,379.65c.59,0,1.06.48,1.06,1.06v6.39c0,.59-.48,1.06-1.06,1.06s-1.06-.48-1.06-1.06v-6.39c0-.59.48-1.06,1.06-1.06ZM1273.76,380.72v6.39c0,.59-.48,1.06-1.06,1.06s-1.06-.48-1.06-1.06v-6.39c0-.59.48-1.06,1.06-1.06s1.06.48,1.06,1.06Z"/>
</svg>