<svg width="100" height="116" viewBox="0 0 100 116" fill="none" xmlns="http://www.w3.org/2000/svg">
<path d="M82.93 46.37C81.47 43.66 79.49 41.34 79.49 41.34C78.01 39.6 76.55 38.3 75.38 37.38C75.38 37.38 72.82 35.32 69.8 34.06C60.12 30 48.26 32.45 39.13 40.4C42.16 36.77 46.57 30.27 47.79 21.33C48.18 18.45 49.73 7.10001 44.14 3.04001C40.41 0.330009 35.97 0.279999 35.97 0.279999C35.97 0.279999 35.17 0.279985 34.36 0.359985C31.64 0.659985 21.92 3.36 13.09 13.16C3.85002 23.42 1.67002 34.69 1.28002 36.93C1.02002 38.4 0.610021 41.04 0.530021 45.29C0.350021 55.16 2.10002 65.25 6.65002 78.43C9.91002 87.89 15.32 100.98 24.39 115.71C24.73 115.75 27.06 115.96 28.83 114.22C30.04 113.03 30.31 111.6 30.38 111.1C24.26 102.19 20.48 93.92 18.13 87.68C11.81 70.92 11.27 56.84 11.16 51.67C11.02 44.77 11.67 39.07 12.27 35.22C12.27 35.22 15.2 21.42 24.85 11.32C26.12 9.99001 28.47 7.74 32.1 6.72C33.64 6.29 36.22 5.61001 38.14 6.70001C42.52 9.19001 40.82 19.47 40.35 22.35C39.81 25.63 38.67 30.2 32.17 42.81C29.4 48.19 26.92 52.57 25.12 55.65C26.1 57.62 27.08 59.58 28.06 61.55C29.36 58.76 31.51 54.84 34.97 50.8C37.98 47.29 42.75 41.71 50.92 39.06C54.68 37.84 61.4 35.61 68.09 39C73.7 41.84 76.14 47.03 76.94 48.96C65.08 57.05 55.98 64.79 49.51 70.78C44.43 75.49 36.76 83.02 33.6 93.35C31.88 98.98 32.46 102.28 33.71 104.65C35.31 107.7 38.09 109.26 39.66 109.98C41.47 110.2 42.61 110.15 42.61 110.15C44.36 109.93 46.83 109.51 49.69 108.62C62.78 104.55 70.29 94.94 73.24 91.07C87.38 72.48 85.46 51.07 82.93 46.38V46.37ZM70.94 81.12C64.53 91.72 60.27 96.3 56.35 99.16C53.62 101.15 50.19 102.82 46.79 102.17C42.08 101.27 43.14 95.37 44.02 91.96C44.46 90.26 44.98 89.04 45.05 88.88C48.78 80.5 54.68 73.91 54.68 73.91C63.71 63.82 76.35 55.1 78.93 53.34C79.09 54 79.22 54.66 79.32 55.3C79.32 56.37 79.53 57.15 79.54 57.2C80.8 64.81 70.94 81.12 70.94 81.12Z" fill="#D4415A"/>
<path d="M99.01 32.8C100.58 38.54 97.93 45.15 94.59 45.35C92.86 45.46 89.96 43.51 89.35 41.84C87.56 36.94 89.42 30.74 92.26 30.77C94.85 30.8 97.41 32.27 99.01 32.79V32.8Z" fill="#D4415A"/>
</svg>
